<?xml version="1.0" encoding="utf-8" standalone="no"?>
<!DOCTYPE svg PUBLIC "-//W3C//DTD SVG 1.1//EN"
  "http://www.w3.org/Graphics/SVG/1.1/DTD/svg11.dtd">
<svg xmlns:xlink="http://www.w3.org/1999/xlink" width="460.8pt" height="345.6pt" viewBox="0 0 460.8 345.6" xmlns="http://www.w3.org/2000/svg" version="1.1">
 <metadata>
  <rdf:RDF xmlns:dc="http://purl.org/dc/elements/1.1/" xmlns:cc="http://creativecommons.org/ns#" xmlns:rdf="http://www.w3.org/1999/02/22-rdf-syntax-ns#">
   <cc:Work>
    <dc:type rdf:resource="http://purl.org/dc/dcmitype/StillImage"/>
    <dc:date>2021-11-24T15:28:36.452432</dc:date>
    <dc:format>image/svg+xml</dc:format>
    <dc:creator>
     <cc:Agent>
      <dc:title>Matplotlib v3.5.0, https://matplotlib.org/</dc:title>
     </cc:Agent>
    </dc:creator>
   </cc:Work>
  </rdf:RDF>
 </metadata>
 <defs>
  <style type="text/css">*{stroke-linejoin: round; stroke-linecap: butt}</style>
 </defs>
 <g id="figure_1">
  <g id="patch_1">
   <path d="M 0 345.6 
L 460.8 345.6 
L 460.8 0 
L 0 0 
z
" style="fill: #ffffff"/>
  </g>
  <g id="axes_1">
   <g id="patch_2">
    <path d="M 356.47748 70.540377 
Q 261.286558 56.339385 167.201433 42.30336 
" clip-path="url(#pefb4947142)" style="fill: none; stroke: #000000; stroke-linecap: round"/>
    <path d="M 167.933656 42.817023 
L 167.201433 42.30336 
L 168.051698 42.02578 
L 167.933656 42.817023 
z
" clip-path="url(#pefb4947142)" style="stroke: #000000; stroke-linecap: round"/>
   </g>
   <g id="patch_3">
    <path d="M 365.042478 80.480861 
Q 365.042468 172.79997 365.042457 264.001045 
" clip-path="url(#pefb4947142)" style="fill: none; stroke: #000000; stroke-linecap: round"/>
    <path d="M 365.442457 263.201045 
L 365.042457 264.001045 
L 364.642457 263.201045 
L 365.442457 263.201045 
z
" clip-path="url(#pefb4947142)" style="stroke: #000000; stroke-linecap: round"/>
   </g>
   <g id="patch_4">
    <path d="M 367.263252 80.191576 
Q 385.68083 149.63512 403.811795 217.997993 
" clip-path="url(#pefb4947142)" style="fill: none; stroke: #000000; stroke-linecap: round"/>
    <path d="M 403.993345 217.122185 
L 403.811795 217.997993 
L 403.220078 217.327268 
L 403.993345 217.122185 
z
" clip-path="url(#pefb4947142)" style="stroke: #000000; stroke-linecap: round"/>
   </g>
   <g id="patch_5">
    <path d="M 103.498186 67.93903 
Q 126.644943 56.339402 148.792154 45.240681 
" clip-path="url(#pefb4947142)" style="fill: none; stroke: #000000; stroke-linecap: round"/>
    <path d="M 147.897728 45.241492 
L 148.792154 45.240681 
L 148.256147 45.956709 
L 147.897728 45.241492 
z
" clip-path="url(#pefb4947142)" style="stroke: #000000; stroke-linecap: round"/>
   </g>
   <g id="patch_6">
    <path d="M 104.322521 70.540378 
Q 199.513447 56.339389 293.598577 42.303369 
" clip-path="url(#pefb4947142)" style="fill: none; stroke: #000000; stroke-linecap: round"/>
    <path d="M 292.748313 42.025788 
L 293.598577 42.303369 
L 292.866354 42.817031 
L 292.748313 42.025788 
z
" clip-path="url(#pefb4947142)" style="stroke: #000000; stroke-linecap: round"/>
   </g>
   <g id="patch_7">
    <path d="M 101.517128 78.283035 
Q 199.512658 188.278521 296.764467 297.439215 
" clip-path="url(#pefb4947142)" style="fill: none; stroke: #000000; stroke-linecap: round"/>
    <path d="M 296.530968 296.575804 
L 296.764467 297.439215 
L 295.933639 297.107967 
L 296.530968 296.575804 
z
" clip-path="url(#pefb4947142)" style="stroke: #000000; stroke-linecap: round"/>
   </g>
   <g id="patch_8">
    <path d="M 104.320515 73.095605 
Q 251.036438 94.983312 396.646565 116.706051 
" clip-path="url(#pefb4947142)" style="fill: none; stroke: #000000; stroke-linecap: round"/>
    <path d="M 395.914342 116.192388 
L 396.646565 116.706051 
L 395.796301 116.983632 
L 395.914342 116.192388 
z
" clip-path="url(#pefb4947142)" style="stroke: #000000; stroke-linecap: round"/>
   </g>
   <g id="patch_9">
    <path d="M 104.028248 74.387526 
Q 258.286667 122.309473 411.477386 169.899727 
" clip-path="url(#pefb4947142)" style="fill: none; stroke: #000000; stroke-linecap: round"/>
    <path d="M 410.832073 169.280397 
L 411.477386 169.899727 
L 410.594734 170.04438 
L 410.832073 169.280397 
z
" clip-path="url(#pefb4947142)" style="stroke: #000000; stroke-linecap: round"/>
   </g>
   <g id="patch_10">
    <path d="M 99.942499 79.395714 
Q 163.07811 193.712849 225.673204 307.051291 
" clip-path="url(#pefb4947142)" style="fill: none; stroke: #000000; stroke-linecap: round"/>
    <path d="M 225.636589 306.157614 
L 225.673204 307.051291 
L 224.936293 306.544377 
L 225.636589 306.157614 
z
" clip-path="url(#pefb4947142)" style="stroke: #000000; stroke-linecap: round"/>
   </g>
   <g id="patch_11">
    <path d="M 97.977352 80.188029 
Q 126.644654 188.278267 155.025344 295.287833 
" clip-path="url(#pefb4947142)" style="fill: none; stroke: #000000; stroke-linecap: round"/>
    <path d="M 155.206894 294.412025 
L 155.025344 295.287833 
L 154.433627 294.617108 
L 155.206894 294.412025 
z
" clip-path="url(#pefb4947142)" style="stroke: #000000; stroke-linecap: round"/>
   </g>
   <g id="patch_12">
    <path d="M 61.409261 112.952902 
Q 106.007722 79.504058 149.711757 46.726034 
" clip-path="url(#pefb4947142)" style="fill: none; stroke: #000000; stroke-linecap: round"/>
    <path d="M 148.831757 46.886034 
L 149.711757 46.726034 
L 149.311757 47.526034 
L 148.831757 46.886034 
z
" clip-path="url(#pefb4947142)" style="stroke: #000000; stroke-linecap: round"/>
   </g>
   <g id="patch_13">
    <path d="M 62.225357 114.268106 
Q 142.44165 74.068996 221.658397 34.370793 
" clip-path="url(#pefb4947142)" style="fill: none; stroke: #000000; stroke-linecap: round"/>
    <path d="M 220.76397 34.371604 
L 221.658397 34.370793 
L 221.12239 35.086821 
L 220.76397 34.371604 
z
" clip-path="url(#pefb4947142)" style="stroke: #000000; stroke-linecap: round"/>
   </g>
   <g id="patch_14">
    <path d="M 45.74602 166.335524 
Q 98.758914 106.830968 151.028087 48.161205 
" clip-path="url(#pefb4947142)" style="fill: none; stroke: #000000; stroke-linecap: round"/>
    <path d="M 150.197259 48.492453 
L 151.028087 48.161205 
L 150.794588 49.024616 
L 150.197259 48.492453 
z
" clip-path="url(#pefb4947142)" style="stroke: #000000; stroke-linecap: round"/>
   </g>
   <g id="patch_15">
    <path d="M 58.668512 219.869059 
Q 106.007171 134.154833 152.805312 49.4193 
" clip-path="url(#pefb4947142)" style="fill: none; stroke: #000000; stroke-linecap: round"/>
    <path d="M 152.068401 49.926214 
L 152.805312 49.4193 
L 152.768697 50.312977 
L 152.068401 49.926214 
z
" clip-path="url(#pefb4947142)" style="stroke: #000000; stroke-linecap: round"/>
   </g>
   <g id="patch_16">
    <path d="M 97.977343 265.411963 
Q 126.644665 157.32172 155.025376 50.312151 
" clip-path="url(#pefb4947142)" style="fill: none; stroke: #000000; stroke-linecap: round"/>
    <path d="M 154.43366 50.982876 
L 155.025376 50.312151 
L 155.206926 51.187959 
L 154.43366 50.982876 
z
" clip-path="url(#pefb4947142)" style="stroke: #000000; stroke-linecap: round"/>
   </g>
   <g id="patch_17">
    <path d="M 104.320504 272.504387 
Q 251.036438 250.616682 396.646576 228.893945 
" clip-path="url(#pefb4947142)" style="fill: none; stroke: #000000; stroke-linecap: round"/>
    <path d="M 395.796312 228.616364 
L 396.646576 228.893945 
L 395.914353 229.407607 
L 395.796312 228.616364 
z
" clip-path="url(#pefb4947142)" style="stroke: #000000; stroke-linecap: round"/>
   </g>
   <g id="PathCollection_1">
    <defs>
     <path id="m1b114c17fc" d="M 0 8.660254 
C 2.296726 8.660254 4.499694 7.747755 6.123724 6.123724 
C 7.747755 4.499694 8.660254 2.296726 8.660254 0 
C 8.660254 -2.296726 7.747755 -4.499694 6.123724 -6.123724 
C 4.499694 -7.747755 2.296726 -8.660254 0 -8.660254 
C -2.296726 -8.660254 -4.499694 -7.747755 -6.123724 -6.123724 
C -7.747755 -4.499694 -8.660254 -2.296726 -8.660254 0 
C -8.660254 2.296726 -7.747755 4.499694 -6.123724 6.123724 
C -4.499694 7.747755 -2.296726 8.660254 0 8.660254 
z
" style="stroke: #000000; stroke-opacity: 0.058824"/>
    </defs>
    <g clip-path="url(#pefb4947142)">
     <use xlink:href="#m1b114c17fc" x="420.813223" y="172.8" style="fill-opacity: 0.058824; stroke: #000000; stroke-opacity: 0.058824"/>
     <use xlink:href="#m1b114c17fc" x="406.318874" y="118.149007" style="fill-opacity: 0.058824; stroke: #000000; stroke-opacity: 0.058824"/>
     <use xlink:href="#m1b114c17fc" x="365.042479" y="71.818141" style="fill-opacity: 0.058824; stroke: #000000; stroke-opacity: 0.058824"/>
     <use xlink:href="#m1b114c17fc" x="303.26799" y="40.860844" style="fill-opacity: 0.058824; stroke: #000000; stroke-opacity: 0.058824"/>
     <use xlink:href="#m1b114c17fc" x="230.399992" y="29.990083" style="fill-opacity: 0.058824; stroke: #000000; stroke-opacity: 0.058824"/>
     <use xlink:href="#m1b114c17fc" x="157.532021" y="40.860836" style="fill-opacity: 0.058824; stroke: #000000; stroke-opacity: 0.058824"/>
     <use xlink:href="#m1b114c17fc" x="95.757521" y="71.818141" style="fill-opacity: 0.058824; stroke: #000000; stroke-opacity: 0.058824"/>
     <use xlink:href="#m1b114c17fc" x="54.481126" y="118.149003" style="fill-opacity: 0.058824; stroke: #000000; stroke-opacity: 0.058824"/>
     <use xlink:href="#m1b114c17fc" x="39.986777" y="172.800012" style="fill-opacity: 0.058824; stroke: #000000; stroke-opacity: 0.058824"/>
     <use xlink:href="#m1b114c17fc" x="54.481126" y="227.450993" style="fill-opacity: 0.058824; stroke: #000000; stroke-opacity: 0.058824"/>
     <use xlink:href="#m1b114c17fc" x="95.75751" y="273.781851" style="fill-opacity: 0.058824; stroke: #000000; stroke-opacity: 0.058824"/>
     <use xlink:href="#m1b114c17fc" x="157.531987" y="304.739147" style="fill-opacity: 0.058824; stroke: #000000; stroke-opacity: 0.058824"/>
     <use xlink:href="#m1b114c17fc" x="230.400002" y="315.609917" style="fill-opacity: 0.058824; stroke: #000000; stroke-opacity: 0.058824"/>
     <use xlink:href="#m1b114c17fc" x="303.268013" y="304.739147" style="fill-opacity: 0.058824; stroke: #000000; stroke-opacity: 0.058824"/>
     <use xlink:href="#m1b114c17fc" x="365.042456" y="273.781876" style="fill-opacity: 0.058824; stroke: #000000; stroke-opacity: 0.058824"/>
     <use xlink:href="#m1b114c17fc" x="406.318886" y="227.450988" style="fill-opacity: 0.058824; stroke: #000000; stroke-opacity: 0.058824"/>
    </g>
   </g>
   <g id="text_1">
    <g clip-path="url(#pefb4947142)">
     <!-- openssl/evp.h -->
     <g transform="translate(413.867286 173.351875)scale(0.02 -0.02)">
      <defs>
       <path id="DejaVuSans-6f" d="M 1959 3097 
Q 1497 3097 1228 2736 
Q 959 2375 959 1747 
Q 959 1119 1226 758 
Q 1494 397 1959 397 
Q 2419 397 2687 759 
Q 2956 1122 2956 1747 
Q 2956 2369 2687 2733 
Q 2419 3097 1959 3097 
z
M 1959 3584 
Q 2709 3584 3137 3096 
Q 3566 2609 3566 1747 
Q 3566 888 3137 398 
Q 2709 -91 1959 -91 
Q 1206 -91 779 398 
Q 353 888 353 1747 
Q 353 2609 779 3096 
Q 1206 3584 1959 3584 
z
" transform="scale(0.015625)"/>
       <path id="DejaVuSans-70" d="M 1159 525 
L 1159 -1331 
L 581 -1331 
L 581 3500 
L 1159 3500 
L 1159 2969 
Q 1341 3281 1617 3432 
Q 1894 3584 2278 3584 
Q 2916 3584 3314 3078 
Q 3713 2572 3713 1747 
Q 3713 922 3314 415 
Q 2916 -91 2278 -91 
Q 1894 -91 1617 61 
Q 1341 213 1159 525 
z
M 3116 1747 
Q 3116 2381 2855 2742 
Q 2594 3103 2138 3103 
Q 1681 3103 1420 2742 
Q 1159 2381 1159 1747 
Q 1159 1113 1420 752 
Q 1681 391 2138 391 
Q 2594 391 2855 752 
Q 3116 1113 3116 1747 
z
" transform="scale(0.015625)"/>
       <path id="DejaVuSans-65" d="M 3597 1894 
L 3597 1613 
L 953 1613 
Q 991 1019 1311 708 
Q 1631 397 2203 397 
Q 2534 397 2845 478 
Q 3156 559 3463 722 
L 3463 178 
Q 3153 47 2828 -22 
Q 2503 -91 2169 -91 
Q 1331 -91 842 396 
Q 353 884 353 1716 
Q 353 2575 817 3079 
Q 1281 3584 2069 3584 
Q 2775 3584 3186 3129 
Q 3597 2675 3597 1894 
z
M 3022 2063 
Q 3016 2534 2758 2815 
Q 2500 3097 2075 3097 
Q 1594 3097 1305 2825 
Q 1016 2553 972 2059 
L 3022 2063 
z
" transform="scale(0.015625)"/>
       <path id="DejaVuSans-6e" d="M 3513 2113 
L 3513 0 
L 2938 0 
L 2938 2094 
Q 2938 2591 2744 2837 
Q 2550 3084 2163 3084 
Q 1697 3084 1428 2787 
Q 1159 2491 1159 1978 
L 1159 0 
L 581 0 
L 581 3500 
L 1159 3500 
L 1159 2956 
Q 1366 3272 1645 3428 
Q 1925 3584 2291 3584 
Q 2894 3584 3203 3211 
Q 3513 2838 3513 2113 
z
" transform="scale(0.015625)"/>
       <path id="DejaVuSans-73" d="M 2834 3397 
L 2834 2853 
Q 2591 2978 2328 3040 
Q 2066 3103 1784 3103 
Q 1356 3103 1142 2972 
Q 928 2841 928 2578 
Q 928 2378 1081 2264 
Q 1234 2150 1697 2047 
L 1894 2003 
Q 2506 1872 2764 1633 
Q 3022 1394 3022 966 
Q 3022 478 2636 193 
Q 2250 -91 1575 -91 
Q 1294 -91 989 -36 
Q 684 19 347 128 
L 347 722 
Q 666 556 975 473 
Q 1284 391 1588 391 
Q 1994 391 2212 530 
Q 2431 669 2431 922 
Q 2431 1156 2273 1281 
Q 2116 1406 1581 1522 
L 1381 1569 
Q 847 1681 609 1914 
Q 372 2147 372 2553 
Q 372 3047 722 3315 
Q 1072 3584 1716 3584 
Q 2034 3584 2315 3537 
Q 2597 3491 2834 3397 
z
" transform="scale(0.015625)"/>
       <path id="DejaVuSans-6c" d="M 603 4863 
L 1178 4863 
L 1178 0 
L 603 0 
L 603 4863 
z
" transform="scale(0.015625)"/>
       <path id="DejaVuSans-2f" d="M 1625 4666 
L 2156 4666 
L 531 -594 
L 0 -594 
L 1625 4666 
z
" transform="scale(0.015625)"/>
       <path id="DejaVuSans-76" d="M 191 3500 
L 800 3500 
L 1894 563 
L 2988 3500 
L 3597 3500 
L 2284 0 
L 1503 0 
L 191 3500 
z
" transform="scale(0.015625)"/>
       <path id="DejaVuSans-2e" d="M 684 794 
L 1344 794 
L 1344 0 
L 684 0 
L 684 794 
z
" transform="scale(0.015625)"/>
       <path id="DejaVuSans-68" d="M 3513 2113 
L 3513 0 
L 2938 0 
L 2938 2094 
Q 2938 2591 2744 2837 
Q 2550 3084 2163 3084 
Q 1697 3084 1428 2787 
Q 1159 2491 1159 1978 
L 1159 0 
L 581 0 
L 581 4863 
L 1159 4863 
L 1159 2956 
Q 1366 3272 1645 3428 
Q 1925 3584 2291 3584 
Q 2894 3584 3203 3211 
Q 3513 2838 3513 2113 
z
" transform="scale(0.015625)"/>
      </defs>
      <use xlink:href="#DejaVuSans-6f"/>
      <use xlink:href="#DejaVuSans-70" x="61.181641"/>
      <use xlink:href="#DejaVuSans-65" x="124.658203"/>
      <use xlink:href="#DejaVuSans-6e" x="186.181641"/>
      <use xlink:href="#DejaVuSans-73" x="249.560547"/>
      <use xlink:href="#DejaVuSans-73" x="301.660156"/>
      <use xlink:href="#DejaVuSans-6c" x="353.759766"/>
      <use xlink:href="#DejaVuSans-2f" x="381.542969"/>
      <use xlink:href="#DejaVuSans-65" x="415.234375"/>
      <use xlink:href="#DejaVuSans-76" x="476.757812"/>
      <use xlink:href="#DejaVuSans-70" x="535.9375"/>
      <use xlink:href="#DejaVuSans-2e" x="599.414062"/>
      <use xlink:href="#DejaVuSans-68" x="631.201172"/>
     </g>
    </g>
   </g>
   <g id="text_2">
    <g clip-path="url(#pefb4947142)">
     <!-- openssl/rsa.h -->
     <g transform="translate(399.670124 118.700882)scale(0.02 -0.02)">
      <defs>
       <path id="DejaVuSans-72" d="M 2631 2963 
Q 2534 3019 2420 3045 
Q 2306 3072 2169 3072 
Q 1681 3072 1420 2755 
Q 1159 2438 1159 1844 
L 1159 0 
L 581 0 
L 581 3500 
L 1159 3500 
L 1159 2956 
Q 1341 3275 1631 3429 
Q 1922 3584 2338 3584 
Q 2397 3584 2469 3576 
Q 2541 3569 2628 3553 
L 2631 2963 
z
" transform="scale(0.015625)"/>
       <path id="DejaVuSans-61" d="M 2194 1759 
Q 1497 1759 1228 1600 
Q 959 1441 959 1056 
Q 959 750 1161 570 
Q 1363 391 1709 391 
Q 2188 391 2477 730 
Q 2766 1069 2766 1631 
L 2766 1759 
L 2194 1759 
z
M 3341 1997 
L 3341 0 
L 2766 0 
L 2766 531 
Q 2569 213 2275 61 
Q 1981 -91 1556 -91 
Q 1019 -91 701 211 
Q 384 513 384 1019 
Q 384 1609 779 1909 
Q 1175 2209 1959 2209 
L 2766 2209 
L 2766 2266 
Q 2766 2663 2505 2880 
Q 2244 3097 1772 3097 
Q 1472 3097 1187 3025 
Q 903 2953 641 2809 
L 641 3341 
Q 956 3463 1253 3523 
Q 1550 3584 1831 3584 
Q 2591 3584 2966 3190 
Q 3341 2797 3341 1997 
z
" transform="scale(0.015625)"/>
      </defs>
      <use xlink:href="#DejaVuSans-6f"/>
      <use xlink:href="#DejaVuSans-70" x="61.181641"/>
      <use xlink:href="#DejaVuSans-65" x="124.658203"/>
      <use xlink:href="#DejaVuSans-6e" x="186.181641"/>
      <use xlink:href="#DejaVuSans-73" x="249.560547"/>
      <use xlink:href="#DejaVuSans-73" x="301.660156"/>
      <use xlink:href="#DejaVuSans-6c" x="353.759766"/>
      <use xlink:href="#DejaVuSans-2f" x="381.542969"/>
      <use xlink:href="#DejaVuSans-72" x="415.234375"/>
      <use xlink:href="#DejaVuSans-73" x="456.347656"/>
      <use xlink:href="#DejaVuSans-61" x="508.447266"/>
      <use xlink:href="#DejaVuSans-2e" x="569.726562"/>
      <use xlink:href="#DejaVuSans-68" x="601.513672"/>
     </g>
    </g>
   </g>
   <g id="text_3">
    <g clip-path="url(#pefb4947142)">
     <!-- rest.hpp -->
     <g transform="translate(360.904354 72.370016)scale(0.02 -0.02)">
      <defs>
       <path id="DejaVuSans-74" d="M 1172 4494 
L 1172 3500 
L 2356 3500 
L 2356 3053 
L 1172 3053 
L 1172 1153 
Q 1172 725 1289 603 
Q 1406 481 1766 481 
L 2356 481 
L 2356 0 
L 1766 0 
Q 1100 0 847 248 
Q 594 497 594 1153 
L 594 3053 
L 172 3053 
L 172 3500 
L 594 3500 
L 594 4494 
L 1172 4494 
z
" transform="scale(0.015625)"/>
      </defs>
      <use xlink:href="#DejaVuSans-72"/>
      <use xlink:href="#DejaVuSans-65" x="38.863281"/>
      <use xlink:href="#DejaVuSans-73" x="100.386719"/>
      <use xlink:href="#DejaVuSans-74" x="152.486328"/>
      <use xlink:href="#DejaVuSans-2e" x="191.695312"/>
      <use xlink:href="#DejaVuSans-68" x="223.482422"/>
      <use xlink:href="#DejaVuSans-70" x="286.861328"/>
      <use xlink:href="#DejaVuSans-70" x="350.337891"/>
     </g>
    </g>
   </g>
   <g id="text_4">
    <g clip-path="url(#pefb4947142)">
     <!-- openssl/pem.h -->
     <g transform="translate(295.939865 41.412719)scale(0.02 -0.02)">
      <defs>
       <path id="DejaVuSans-6d" d="M 3328 2828 
Q 3544 3216 3844 3400 
Q 4144 3584 4550 3584 
Q 5097 3584 5394 3201 
Q 5691 2819 5691 2113 
L 5691 0 
L 5113 0 
L 5113 2094 
Q 5113 2597 4934 2840 
Q 4756 3084 4391 3084 
Q 3944 3084 3684 2787 
Q 3425 2491 3425 1978 
L 3425 0 
L 2847 0 
L 2847 2094 
Q 2847 2600 2669 2842 
Q 2491 3084 2119 3084 
Q 1678 3084 1418 2786 
Q 1159 2488 1159 1978 
L 1159 0 
L 581 0 
L 581 3500 
L 1159 3500 
L 1159 2956 
Q 1356 3278 1631 3431 
Q 1906 3584 2284 3584 
Q 2666 3584 2933 3390 
Q 3200 3197 3328 2828 
z
" transform="scale(0.015625)"/>
      </defs>
      <use xlink:href="#DejaVuSans-6f"/>
      <use xlink:href="#DejaVuSans-70" x="61.181641"/>
      <use xlink:href="#DejaVuSans-65" x="124.658203"/>
      <use xlink:href="#DejaVuSans-6e" x="186.181641"/>
      <use xlink:href="#DejaVuSans-73" x="249.560547"/>
      <use xlink:href="#DejaVuSans-73" x="301.660156"/>
      <use xlink:href="#DejaVuSans-6c" x="353.759766"/>
      <use xlink:href="#DejaVuSans-2f" x="381.542969"/>
      <use xlink:href="#DejaVuSans-70" x="415.234375"/>
      <use xlink:href="#DejaVuSans-65" x="478.710938"/>
      <use xlink:href="#DejaVuSans-6d" x="540.234375"/>
      <use xlink:href="#DejaVuSans-2e" x="637.646484"/>
      <use xlink:href="#DejaVuSans-68" x="669.433594"/>
     </g>
    </g>
   </g>
   <g id="text_5">
    <g clip-path="url(#pefb4947142)">
     <!-- unistd.h -->
     <g transform="translate(226.355304 30.541958)scale(0.02 -0.02)">
      <defs>
       <path id="DejaVuSans-75" d="M 544 1381 
L 544 3500 
L 1119 3500 
L 1119 1403 
Q 1119 906 1312 657 
Q 1506 409 1894 409 
Q 2359 409 2629 706 
Q 2900 1003 2900 1516 
L 2900 3500 
L 3475 3500 
L 3475 0 
L 2900 0 
L 2900 538 
Q 2691 219 2414 64 
Q 2138 -91 1772 -91 
Q 1169 -91 856 284 
Q 544 659 544 1381 
z
M 1991 3584 
L 1991 3584 
z
" transform="scale(0.015625)"/>
       <path id="DejaVuSans-69" d="M 603 3500 
L 1178 3500 
L 1178 0 
L 603 0 
L 603 3500 
z
M 603 4863 
L 1178 4863 
L 1178 4134 
L 603 4134 
L 603 4863 
z
" transform="scale(0.015625)"/>
       <path id="DejaVuSans-64" d="M 2906 2969 
L 2906 4863 
L 3481 4863 
L 3481 0 
L 2906 0 
L 2906 525 
Q 2725 213 2448 61 
Q 2172 -91 1784 -91 
Q 1150 -91 751 415 
Q 353 922 353 1747 
Q 353 2572 751 3078 
Q 1150 3584 1784 3584 
Q 2172 3584 2448 3432 
Q 2725 3281 2906 2969 
z
M 947 1747 
Q 947 1113 1208 752 
Q 1469 391 1925 391 
Q 2381 391 2643 752 
Q 2906 1113 2906 1747 
Q 2906 2381 2643 2742 
Q 2381 3103 1925 3103 
Q 1469 3103 1208 2742 
Q 947 2381 947 1747 
z
" transform="scale(0.015625)"/>
      </defs>
      <use xlink:href="#DejaVuSans-75"/>
      <use xlink:href="#DejaVuSans-6e" x="63.378906"/>
      <use xlink:href="#DejaVuSans-69" x="126.757812"/>
      <use xlink:href="#DejaVuSans-73" x="154.541016"/>
      <use xlink:href="#DejaVuSans-74" x="206.640625"/>
      <use xlink:href="#DejaVuSans-64" x="245.849609"/>
      <use xlink:href="#DejaVuSans-2e" x="309.326172"/>
      <use xlink:href="#DejaVuSans-68" x="341.113281"/>
     </g>
    </g>
   </g>
   <g id="text_6">
    <g clip-path="url(#pefb4947142)">
     <!-- bits/stdc++.h -->
     <g transform="translate(150.644365 41.412711)scale(0.02 -0.02)">
      <defs>
       <path id="DejaVuSans-62" d="M 3116 1747 
Q 3116 2381 2855 2742 
Q 2594 3103 2138 3103 
Q 1681 3103 1420 2742 
Q 1159 2381 1159 1747 
Q 1159 1113 1420 752 
Q 1681 391 2138 391 
Q 2594 391 2855 752 
Q 3116 1113 3116 1747 
z
M 1159 2969 
Q 1341 3281 1617 3432 
Q 1894 3584 2278 3584 
Q 2916 3584 3314 3078 
Q 3713 2572 3713 1747 
Q 3713 922 3314 415 
Q 2916 -91 2278 -91 
Q 1894 -91 1617 61 
Q 1341 213 1159 525 
L 1159 0 
L 581 0 
L 581 4863 
L 1159 4863 
L 1159 2969 
z
" transform="scale(0.015625)"/>
       <path id="DejaVuSans-63" d="M 3122 3366 
L 3122 2828 
Q 2878 2963 2633 3030 
Q 2388 3097 2138 3097 
Q 1578 3097 1268 2742 
Q 959 2388 959 1747 
Q 959 1106 1268 751 
Q 1578 397 2138 397 
Q 2388 397 2633 464 
Q 2878 531 3122 666 
L 3122 134 
Q 2881 22 2623 -34 
Q 2366 -91 2075 -91 
Q 1284 -91 818 406 
Q 353 903 353 1747 
Q 353 2603 823 3093 
Q 1294 3584 2113 3584 
Q 2378 3584 2631 3529 
Q 2884 3475 3122 3366 
z
" transform="scale(0.015625)"/>
       <path id="DejaVuSans-2b" d="M 2944 4013 
L 2944 2272 
L 4684 2272 
L 4684 1741 
L 2944 1741 
L 2944 0 
L 2419 0 
L 2419 1741 
L 678 1741 
L 678 2272 
L 2419 2272 
L 2419 4013 
L 2944 4013 
z
" transform="scale(0.015625)"/>
      </defs>
      <use xlink:href="#DejaVuSans-62"/>
      <use xlink:href="#DejaVuSans-69" x="63.476562"/>
      <use xlink:href="#DejaVuSans-74" x="91.259766"/>
      <use xlink:href="#DejaVuSans-73" x="130.46875"/>
      <use xlink:href="#DejaVuSans-2f" x="182.568359"/>
      <use xlink:href="#DejaVuSans-73" x="216.259766"/>
      <use xlink:href="#DejaVuSans-74" x="268.359375"/>
      <use xlink:href="#DejaVuSans-64" x="307.568359"/>
      <use xlink:href="#DejaVuSans-63" x="371.044922"/>
      <use xlink:href="#DejaVuSans-2b" x="426.025391"/>
      <use xlink:href="#DejaVuSans-2b" x="509.814453"/>
      <use xlink:href="#DejaVuSans-2e" x="593.603516"/>
      <use xlink:href="#DejaVuSans-68" x="625.390625"/>
     </g>
    </g>
   </g>
   <g id="text_7">
    <g clip-path="url(#pefb4947142)">
     <!-- cryptation.hpp -->
     <g transform="translate(88.428302 72.370016)scale(0.02 -0.02)">
      <defs>
       <path id="DejaVuSans-79" d="M 2059 -325 
Q 1816 -950 1584 -1140 
Q 1353 -1331 966 -1331 
L 506 -1331 
L 506 -850 
L 844 -850 
Q 1081 -850 1212 -737 
Q 1344 -625 1503 -206 
L 1606 56 
L 191 3500 
L 800 3500 
L 1894 763 
L 2988 3500 
L 3597 3500 
L 2059 -325 
z
" transform="scale(0.015625)"/>
      </defs>
      <use xlink:href="#DejaVuSans-63"/>
      <use xlink:href="#DejaVuSans-72" x="54.980469"/>
      <use xlink:href="#DejaVuSans-79" x="96.09375"/>
      <use xlink:href="#DejaVuSans-70" x="155.273438"/>
      <use xlink:href="#DejaVuSans-74" x="218.75"/>
      <use xlink:href="#DejaVuSans-61" x="257.958984"/>
      <use xlink:href="#DejaVuSans-74" x="319.238281"/>
      <use xlink:href="#DejaVuSans-69" x="358.447266"/>
      <use xlink:href="#DejaVuSans-6f" x="386.230469"/>
      <use xlink:href="#DejaVuSans-6e" x="447.412109"/>
      <use xlink:href="#DejaVuSans-2e" x="510.791016"/>
      <use xlink:href="#DejaVuSans-68" x="542.578125"/>
      <use xlink:href="#DejaVuSans-70" x="605.957031"/>
      <use xlink:href="#DejaVuSans-70" x="669.433594"/>
     </g>
    </g>
   </g>
   <g id="text_8">
    <g clip-path="url(#pefb4947142)">
     <!-- sleep.hpp -->
     <g transform="translate(49.595657 118.700878)scale(0.02 -0.02)">
      <use xlink:href="#DejaVuSans-73"/>
      <use xlink:href="#DejaVuSans-6c" x="52.099609"/>
      <use xlink:href="#DejaVuSans-65" x="79.882812"/>
      <use xlink:href="#DejaVuSans-65" x="141.40625"/>
      <use xlink:href="#DejaVuSans-70" x="202.929688"/>
      <use xlink:href="#DejaVuSans-2e" x="266.40625"/>
      <use xlink:href="#DejaVuSans-68" x="298.193359"/>
      <use xlink:href="#DejaVuSans-70" x="361.572266"/>
      <use xlink:href="#DejaVuSans-70" x="425.048828"/>
     </g>
    </g>
   </g>
   <g id="text_9">
    <g clip-path="url(#pefb4947142)">
     <!-- positive.hpp -->
     <g transform="translate(33.843027 173.351887)scale(0.02 -0.02)">
      <use xlink:href="#DejaVuSans-70"/>
      <use xlink:href="#DejaVuSans-6f" x="63.476562"/>
      <use xlink:href="#DejaVuSans-73" x="124.658203"/>
      <use xlink:href="#DejaVuSans-69" x="176.757812"/>
      <use xlink:href="#DejaVuSans-74" x="204.541016"/>
      <use xlink:href="#DejaVuSans-69" x="243.75"/>
      <use xlink:href="#DejaVuSans-76" x="271.533203"/>
      <use xlink:href="#DejaVuSans-65" x="330.712891"/>
      <use xlink:href="#DejaVuSans-2e" x="392.236328"/>
      <use xlink:href="#DejaVuSans-68" x="424.023438"/>
      <use xlink:href="#DejaVuSans-70" x="487.402344"/>
      <use xlink:href="#DejaVuSans-70" x="550.878906"/>
     </g>
    </g>
   </g>
   <g id="text_10">
    <g clip-path="url(#pefb4947142)">
     <!-- emoji.hpp -->
     <g transform="translate(49.503001 228.002868)scale(0.02 -0.02)">
      <defs>
       <path id="DejaVuSans-6a" d="M 603 3500 
L 1178 3500 
L 1178 -63 
Q 1178 -731 923 -1031 
Q 669 -1331 103 -1331 
L -116 -1331 
L -116 -844 
L 38 -844 
Q 366 -844 484 -692 
Q 603 -541 603 -63 
L 603 3500 
z
M 603 4863 
L 1178 4863 
L 1178 4134 
L 603 4134 
L 603 4863 
z
" transform="scale(0.015625)"/>
      </defs>
      <use xlink:href="#DejaVuSans-65"/>
      <use xlink:href="#DejaVuSans-6d" x="61.523438"/>
      <use xlink:href="#DejaVuSans-6f" x="158.935547"/>
      <use xlink:href="#DejaVuSans-6a" x="220.117188"/>
      <use xlink:href="#DejaVuSans-69" x="247.900391"/>
      <use xlink:href="#DejaVuSans-2e" x="275.683594"/>
      <use xlink:href="#DejaVuSans-68" x="307.470703"/>
      <use xlink:href="#DejaVuSans-70" x="370.849609"/>
      <use xlink:href="#DejaVuSans-70" x="434.326172"/>
     </g>
    </g>
   </g>
   <g id="text_11">
    <g clip-path="url(#pefb4947142)">
     <!-- inputs.hpp -->
     <g transform="translate(90.443135 274.333726)scale(0.02 -0.02)">
      <use xlink:href="#DejaVuSans-69"/>
      <use xlink:href="#DejaVuSans-6e" x="27.783203"/>
      <use xlink:href="#DejaVuSans-70" x="91.162109"/>
      <use xlink:href="#DejaVuSans-75" x="154.638672"/>
      <use xlink:href="#DejaVuSans-74" x="218.017578"/>
      <use xlink:href="#DejaVuSans-73" x="257.226562"/>
      <use xlink:href="#DejaVuSans-2e" x="309.326172"/>
      <use xlink:href="#DejaVuSans-68" x="341.113281"/>
      <use xlink:href="#DejaVuSans-70" x="404.492188"/>
      <use xlink:href="#DejaVuSans-70" x="467.96875"/>
     </g>
    </g>
   </g>
   <g id="text_12">
    <g clip-path="url(#pefb4947142)">
     <!-- openssl/err.h -->
     <g transform="translate(151.099331 305.291022)scale(0.02 -0.02)">
      <use xlink:href="#DejaVuSans-6f"/>
      <use xlink:href="#DejaVuSans-70" x="61.181641"/>
      <use xlink:href="#DejaVuSans-65" x="124.658203"/>
      <use xlink:href="#DejaVuSans-6e" x="186.181641"/>
      <use xlink:href="#DejaVuSans-73" x="249.560547"/>
      <use xlink:href="#DejaVuSans-73" x="301.660156"/>
      <use xlink:href="#DejaVuSans-6c" x="353.759766"/>
      <use xlink:href="#DejaVuSans-2f" x="381.542969"/>
      <use xlink:href="#DejaVuSans-65" x="415.234375"/>
      <use xlink:href="#DejaVuSans-72" x="476.757812"/>
      <use xlink:href="#DejaVuSans-72" x="516.121094"/>
      <use xlink:href="#DejaVuSans-2e" x="548.109375"/>
      <use xlink:href="#DejaVuSans-68" x="579.896484"/>
     </g>
    </g>
   </g>
   <g id="text_13">
    <g clip-path="url(#pefb4947142)">
     <!-- openssl/bio.h -->
     <g transform="translate(223.789065 316.161792)scale(0.02 -0.02)">
      <use xlink:href="#DejaVuSans-6f"/>
      <use xlink:href="#DejaVuSans-70" x="61.181641"/>
      <use xlink:href="#DejaVuSans-65" x="124.658203"/>
      <use xlink:href="#DejaVuSans-6e" x="186.181641"/>
      <use xlink:href="#DejaVuSans-73" x="249.560547"/>
      <use xlink:href="#DejaVuSans-73" x="301.660156"/>
      <use xlink:href="#DejaVuSans-6c" x="353.759766"/>
      <use xlink:href="#DejaVuSans-2f" x="381.542969"/>
      <use xlink:href="#DejaVuSans-62" x="415.234375"/>
      <use xlink:href="#DejaVuSans-69" x="478.710938"/>
      <use xlink:href="#DejaVuSans-6f" x="506.494141"/>
      <use xlink:href="#DejaVuSans-2e" x="565.925781"/>
      <use xlink:href="#DejaVuSans-68" x="597.712891"/>
     </g>
    </g>
   </g>
   <g id="text_14">
    <g clip-path="url(#pefb4947142)">
     <!-- openssl/ssl.h -->
     <g transform="translate(296.844419 305.291022)scale(0.02 -0.02)">
      <use xlink:href="#DejaVuSans-6f"/>
      <use xlink:href="#DejaVuSans-70" x="61.181641"/>
      <use xlink:href="#DejaVuSans-65" x="124.658203"/>
      <use xlink:href="#DejaVuSans-6e" x="186.181641"/>
      <use xlink:href="#DejaVuSans-73" x="249.560547"/>
      <use xlink:href="#DejaVuSans-73" x="301.660156"/>
      <use xlink:href="#DejaVuSans-6c" x="353.759766"/>
      <use xlink:href="#DejaVuSans-2f" x="381.542969"/>
      <use xlink:href="#DejaVuSans-73" x="415.234375"/>
      <use xlink:href="#DejaVuSans-73" x="467.333984"/>
      <use xlink:href="#DejaVuSans-6c" x="519.433594"/>
      <use xlink:href="#DejaVuSans-2e" x="547.216797"/>
      <use xlink:href="#DejaVuSans-68" x="579.003906"/>
     </g>
    </g>
   </g>
   <g id="text_15">
    <g clip-path="url(#pefb4947142)">
     <!-- curl/curl.h -->
     <g transform="translate(360.009019 274.333751)scale(0.02 -0.02)">
      <use xlink:href="#DejaVuSans-63"/>
      <use xlink:href="#DejaVuSans-75" x="54.980469"/>
      <use xlink:href="#DejaVuSans-72" x="118.359375"/>
      <use xlink:href="#DejaVuSans-6c" x="159.472656"/>
      <use xlink:href="#DejaVuSans-2f" x="187.255859"/>
      <use xlink:href="#DejaVuSans-63" x="220.947266"/>
      <use xlink:href="#DejaVuSans-75" x="275.927734"/>
      <use xlink:href="#DejaVuSans-72" x="339.306641"/>
      <use xlink:href="#DejaVuSans-6c" x="380.419922"/>
      <use xlink:href="#DejaVuSans-2e" x="408.203125"/>
      <use xlink:href="#DejaVuSans-68" x="439.990234"/>
     </g>
    </g>
   </g>
   <g id="text_16">
    <g clip-path="url(#pefb4947142)">
     <!-- json.hpp -->
     <g transform="translate(402.053261 228.002863)scale(0.02 -0.02)">
      <use xlink:href="#DejaVuSans-6a"/>
      <use xlink:href="#DejaVuSans-73" x="27.783203"/>
      <use xlink:href="#DejaVuSans-6f" x="79.882812"/>
      <use xlink:href="#DejaVuSans-6e" x="141.064453"/>
      <use xlink:href="#DejaVuSans-2e" x="204.443359"/>
      <use xlink:href="#DejaVuSans-68" x="236.230469"/>
      <use xlink:href="#DejaVuSans-70" x="299.609375"/>
      <use xlink:href="#DejaVuSans-70" x="363.085938"/>
     </g>
    </g>
   </g>
  </g>
 </g>
 <defs>
  <clipPath id="pefb4947142">
   <rect x="0" y="0" width="460.8" height="345.6"/>
  </clipPath>
 </defs>
</svg>
