<!DOCTYPE svg PUBLIC "-//W3C//DTD SVG 1.1//EN" "http://www.w3.org/Graphics/SVG/1.1/DTD/svg11.dtd">
<svg xmlns="http://www.w3.org/2000/svg" xmlns:xlink="http://www.w3.org/1999/xlink" version="1.1" width="1052px" height="713px" viewBox="-0.5 -0.5 1052 713"><defs><clipPath id="mx-clip-4-31-272-30-0"><rect x="4" y="31" width="272" height="30"/></clipPath><clipPath id="mx-clip-4-69-272-120-0"><rect x="4" y="69" width="272" height="120"/></clipPath><clipPath id="mx-clip-4-189-272-35-0"><rect x="4" y="189" width="272" height="35"/></clipPath><clipPath id="mx-clip-484-31-182-26-0"><rect x="484" y="31" width="182" height="26"/></clipPath><clipPath id="mx-clip-484-65-182-25-0"><rect x="484" y="65" width="182" height="25"/></clipPath><clipPath id="mx-clip-4-350-282-30-0"><rect x="4" y="350" width="282" height="30"/></clipPath><clipPath id="mx-clip-4-388-282-80-0"><rect x="4" y="388" width="282" height="80"/></clipPath><clipPath id="mx-clip-4-468-282-35-0"><rect x="4" y="468" width="282" height="35"/></clipPath><clipPath id="mx-clip-484-678-162-35-0"><rect x="484" y="678" width="162" height="35"/></clipPath><clipPath id="mx-clip-484-350-562-60-0"><rect x="484" y="350" width="562" height="60"/></clipPath><clipPath id="mx-clip-484-410-562-30-0"><rect x="484" y="410" width="562" height="30"/></clipPath><clipPath id="mx-clip-484-448-562-80-0"><rect x="484" y="448" width="562" height="80"/></clipPath><clipPath id="mx-clip-484-528-562-50-0"><rect x="484" y="528" width="562" height="50"/></clipPath><clipPath id="mx-clip-4-678-212-35-0"><rect x="4" y="678" width="212" height="35"/></clipPath></defs><g><path d="M 0 26 L 0 0 L 280 0 L 280 26" fill="#ff9933" stroke="rgb(0, 0, 0)" stroke-miterlimit="10" pointer-events="all"/><path d="M 0 26 L 0 219 L 280 219 L 280 26" fill="none" stroke="rgb(0, 0, 0)" stroke-miterlimit="10" pointer-events="none"/><path d="M 0 26 L 280 26" fill="none" stroke="rgb(0, 0, 0)" stroke-miterlimit="10" pointer-events="none"/><g fill="rgb(0, 0, 0)" font-family="Helvetica" font-weight="bold" pointer-events="none" text-anchor="middle" font-size="12px"><text x="139.5" y="17.5">cryptation</text></g><g fill="rgb(0, 0, 0)" font-family="Helvetica" pointer-events="none" clip-path="url(#mx-clip-4-31-272-30-0)" font-size="12px"><text x="5.5" y="43.5">- privateKey:string</text><text x="5.5" y="57.5">- publicKey:string</text></g><path d="M 0 60 L 280 60" fill="none" stroke="rgb(0, 0, 0)" stroke-miterlimit="10" pointer-events="none"/><g fill="rgb(0, 0, 0)" font-family="Helvetica" pointer-events="none" clip-path="url(#mx-clip-4-69-272-120-0)" font-size="12px"><text x="5.5" y="81.5">- createRSA(key:string, isPublic:bool):RSA</text><text x="5.5" y="95.5">- base64_encode(in:string):string</text><text x="5.5" y="109.5">- base64_decode(in:string):string</text><text x="5.5" y="123.5">+ Cryptation(privateKey:string, publicKey:string)</text><text x="5.5" y="137.5">+ Cryptation(key:string, isPublic:bool)</text><text x="5.5" y="151.5">+ Cryptation()</text><text x="5.5" y="165.5">+ decrypt(data:string):string</text><text x="5.5" y="179.5">+ encrypt(data:string):string</text></g><g fill="rgb(0, 0, 0)" font-family="Helvetica" text-decoration="underline" pointer-events="none" clip-path="url(#mx-clip-4-189-272-35-0)" font-size="12px"><text x="5.5" y="201.5">+ decrypt(data:string, privateKey:string):string</text><text x="5.5" y="215.5">+ encrypt(data:string, publicKey:string):string</text></g><path d="M 480 26 L 480 0 L 670 0 L 670 26" fill="#ff9933" stroke="rgb(0, 0, 0)" stroke-miterlimit="10" pointer-events="none"/><path d="M 480 26 L 480 85 L 670 85 L 670 26" fill="none" stroke="rgb(0, 0, 0)" stroke-miterlimit="10" pointer-events="none"/><path d="M 480 26 L 670 26" fill="none" stroke="rgb(0, 0, 0)" stroke-miterlimit="10" pointer-events="none"/><g fill="rgb(0, 0, 0)" font-family="Helvetica" font-weight="bold" pointer-events="none" text-anchor="middle" font-size="12px"><text x="574.5" y="17.5">emoji</text></g><g fill="rgb(0, 0, 0)" font-family="Helvetica" pointer-events="none" clip-path="url(#mx-clip-484-31-182-26-0)" font-size="12px"><text x="485.5" y="43.5">- emoji_map:map&lt;string,string&gt;</text></g><path d="M 480 56 L 670 56" fill="none" stroke="rgb(0, 0, 0)" stroke-miterlimit="10" pointer-events="none"/><g fill="rgb(0, 0, 0)" font-family="Helvetica" text-decoration="underline" pointer-events="none" clip-path="url(#mx-clip-484-65-182-25-0)" font-size="12px"><text x="485.5" y="77.5">+ getEmoji(emoji_name:string)</text></g><path d="M 0 345 L 0 319 L 290 319 L 290 345" fill="#ff9933" stroke="rgb(0, 0, 0)" stroke-miterlimit="10" pointer-events="none"/><path d="M 0 345 L 0 498 L 290 498 L 290 345" fill="none" stroke="rgb(0, 0, 0)" stroke-miterlimit="10" pointer-events="none"/><path d="M 0 345 L 290 345" fill="none" stroke="rgb(0, 0, 0)" stroke-miterlimit="10" pointer-events="none"/><g fill="rgb(0, 0, 0)" font-family="Helvetica" font-weight="bold" pointer-events="none" text-anchor="middle" font-size="12px"><text x="144.5" y="336.5">inputs</text></g><g fill="rgb(0, 0, 0)" font-family="Helvetica" pointer-events="none" clip-path="url(#mx-clip-4-350-282-30-0)" font-size="12px"><text x="5.5" y="362.5">- convertion:map&lt;string, string&gt;</text><text x="5.5" y="376.5">- m:map&lt;string, string&gt;</text></g><path d="M 0 379 L 290 379" fill="none" stroke="rgb(0, 0, 0)" stroke-miterlimit="10" pointer-events="none"/><g fill="rgb(0, 0, 0)" font-family="Helvetica" pointer-events="none" clip-path="url(#mx-clip-4-388-282-80-0)" font-size="12px"><text x="5.5" y="400.5">- longVersion(s:string):string</text><text x="5.5" y="414.5">+ Inputs()</text><text x="5.5" y="428.5">+ Inputs(argc:int, argv:char*[])</text><text x="5.5" y="442.5">+ exist(key:string):bool</text><text x="5.5" y="456.5">+ getValue(key:string):string</text></g><g fill="rgb(0, 0, 0)" font-family="Helvetica" text-decoration="underline" pointer-events="none" clip-path="url(#mx-clip-4-468-282-35-0)" font-size="12px"><text x="5.5" y="480.5">+ exist(argc:int, argv:char*[], key:string):bool</text><text x="5.5" y="494.5">+ getValue(argc:int, argv:char*[], key:string):string</text></g><path d="M 495 189 L 495 159 L 655 159 L 655 189" fill="#ff9933" stroke="rgb(0, 0, 0)" stroke-miterlimit="10" pointer-events="none"/><path d="M 495 189 L 655 189" fill="none" stroke="rgb(0, 0, 0)" stroke-miterlimit="10" pointer-events="none"/><g fill="rgb(0, 0, 0)" font-family="Helvetica" font-weight="bold" pointer-events="none" text-anchor="middle" font-size="12px"><text x="574.5" y="176.5">json</text></g><path d="M 480 665 L 480 639 L 650 639 L 650 665" fill="#ff9933" stroke="rgb(0, 0, 0)" stroke-miterlimit="10" pointer-events="none"/><path d="M 480 665 L 480 708 L 650 708 L 650 665" fill="none" stroke="rgb(0, 0, 0)" stroke-miterlimit="10" pointer-events="none"/><path d="M 480 665 L 650 665" fill="none" stroke="rgb(0, 0, 0)" stroke-miterlimit="10" pointer-events="none"/><g fill="rgb(0, 0, 0)" font-family="Helvetica" font-weight="bold" pointer-events="none" text-anchor="middle" font-size="12px"><text x="564.5" y="656.5">positive</text></g><path d="M 480 669 L 650 669" fill="none" stroke="rgb(0, 0, 0)" stroke-miterlimit="10" pointer-events="none"/><g fill="rgb(0, 0, 0)" font-family="Helvetica" text-decoration="underline" pointer-events="none" clip-path="url(#mx-clip-484-678-162-35-0)" font-size="12px"><text x="485.5" y="690.5">+ isPositive(str:string):bool</text><text x="485.5" y="704.5">+ isNegative(str:string):bool</text></g><path d="M 480 345 L 480 319 L 1050 319 L 1050 345" fill="#ff9933" stroke="rgb(0, 0, 0)" stroke-miterlimit="10" pointer-events="none"/><path d="M 480 345 L 480 573 L 1050 573 L 1050 345" fill="none" stroke="rgb(0, 0, 0)" stroke-miterlimit="10" pointer-events="none"/><path d="M 480 345 L 1050 345" fill="none" stroke="rgb(0, 0, 0)" stroke-miterlimit="10" pointer-events="none"/><g fill="rgb(0, 0, 0)" font-family="Helvetica" font-weight="bold" pointer-events="none" text-anchor="middle" font-size="12px"><text x="764.5" y="336.5">rest</text></g><g fill="rgb(0, 0, 0)" font-family="Helvetica" pointer-events="none" clip-path="url(#mx-clip-484-350-562-60-0)" font-size="12px"><text x="485.5" y="362.5">- link:string</text><text x="485.5" y="376.5">- token:string</text><text x="485.5" y="390.5">- data: json</text><text x="485.5" y="404.5">- POST:bool</text></g><g fill="rgb(0, 0, 0)" font-family="Helvetica" text-decoration="underline" pointer-events="none" clip-path="url(#mx-clip-484-410-562-30-0)" font-size="12px"><text x="485.5" y="422.5">+ CREATESTRUCTURE_REST_API:string = "https://www.castellanidavide.it/other/createstructure/api/"</text><text x="485.5" y="436.5">+ GITHUB_REST_API:string = "https://api.github.com/"</text></g><path d="M 480 439 L 1050 439" fill="none" stroke="rgb(0, 0, 0)" stroke-miterlimit="10" pointer-events="none"/><g fill="rgb(0, 0, 0)" font-family="Helvetica" pointer-events="none" clip-path="url(#mx-clip-484-448-562-80-0)" font-size="12px"><text x="485.5" y="460.5">- WriteCallback(contents:char*, size:size_t, nmemb:size_t, userp: void*)</text><text x="485.5" y="474.5">+ Rest(link:string, token:string, data:json, POST:bool)</text><text x="485.5" y="488.5">+ textRequest():string</text><text x="485.5" y="502.5">+ jsonRequest():json</text><text x="485.5" y="516.5">+ request()</text></g><g fill="rgb(0, 0, 0)" font-family="Helvetica" text-decoration="underline" pointer-events="none" clip-path="url(#mx-clip-484-528-562-50-0)" font-size="12px"><text x="485.5" y="540.5">+ textRequest(link:string, token:string, data:json, POST:bool):string</text><text x="485.5" y="554.5">+ jsonRequest(link:string, token:string, data:json, POST:bool):json</text><text x="485.5" y="568.5">+ request(link:string, token:string, data:json, POST:bool)</text></g><path d="M 0 665 L 0 639 L 220 639 L 220 665" fill="#ff9933" stroke="rgb(0, 0, 0)" stroke-miterlimit="10" pointer-events="none"/><path d="M 0 665 L 0 708 L 220 708 L 220 665" fill="none" stroke="rgb(0, 0, 0)" stroke-miterlimit="10" pointer-events="none"/><path d="M 0 665 L 220 665" fill="none" stroke="rgb(0, 0, 0)" stroke-miterlimit="10" pointer-events="none"/><g fill="rgb(0, 0, 0)" font-family="Helvetica" font-weight="bold" pointer-events="none" text-anchor="middle" font-size="12px"><text x="109.5" y="656.5">sleep</text></g><path d="M 0 669 L 220 669" fill="none" stroke="rgb(0, 0, 0)" stroke-miterlimit="10" pointer-events="none"/><g fill="rgb(0, 0, 0)" font-family="Helvetica" pointer-events="none" clip-path="url(#mx-clip-4-678-212-35-0)" font-size="12px"><text x="5.5" y="690.5">+ sleep(seconds:int)</text><text x="5.5" y="704.5">+ sleep(seconds:int, nanosecond:int)</text></g></g></svg>